<svg width="150" height="150" viewBox="0 0 150 150" fill="none" xmlns="http://www.w3.org/2000/svg">
<path d="M0 45C0 20.1472 20.1472 0 45 0H135C143.284 0 150 6.71573 150 15V105C150 129.853 129.853 150 105 150H15C6.71573 150 0 143.284 0 135V45Z" fill="#FFF500"/>
<path d="M78.83 133.432C77.3794 133.432 76.0567 133.048 74.862 132.28C73.7527 131.427 72.558 130.616 71.278 129.848C68.462 128.227 66.286 126.093 64.75 123.448C63.214 120.803 62.446 117.56 62.446 113.72C62.446 111.843 62.7447 109.624 63.3421 107.064C64.0247 104.419 64.622 101.987 65.134 99.768C65.39 98.8293 65.9874 97.5493 66.9261 95.928C67.8647 94.2213 69.0167 92.6 70.382 91.064C71.8327 89.4426 73.454 88.0346 75.246 86.84C77.038 85.6453 78.8727 85.048 80.75 85.048C81.518 85.048 82.286 85.304 83.054 85.816C84.2487 86.584 85.4861 87.224 86.7661 87.736C88.0461 88.248 89.326 88.76 90.606 89.272C91.9714 89.784 93.2941 90.3386 94.5741 90.936C95.854 91.5333 97.0487 92.3013 98.1581 93.24C99.0967 94.008 99.822 94.9466 100.334 96.056C100.846 97.1653 101.358 98.232 101.87 99.256C102.297 100.109 102.553 101.005 102.638 101.944C102.723 102.797 102.766 103.693 102.766 104.632V107.064C102.681 109.709 102.126 112.184 101.102 114.488C100.163 116.707 99.0114 118.883 97.6461 121.016C96.9634 122.125 96.0674 123.405 94.9581 124.856C93.8487 126.307 92.6114 127.672 91.246 128.952C89.8807 130.232 88.4301 131.341 86.8941 132.28C85.4434 133.133 83.95 133.56 82.414 133.56C81.9874 133.56 81.5181 133.517 81.0061 133.432C80.5794 133.432 80.1101 133.432 79.5981 133.432H78.83ZM91.3741 102.84C91.3741 100.365 90.4781 98.5733 88.6861 97.464C86.8941 96.3546 84.9314 95.8 82.798 95.8C81.0914 95.8 79.6407 96.4826 78.446 97.848C77.2514 99.128 76.2274 100.749 75.3741 102.712C74.5207 104.589 73.8807 106.637 73.4541 108.856C73.1127 110.989 72.942 112.867 72.942 114.488C72.942 114.829 72.9847 115.512 73.0701 116.536C73.2407 117.56 73.4967 118.627 73.8381 119.736C74.1794 120.845 74.6487 121.827 75.246 122.68C75.9287 123.533 76.782 123.96 77.806 123.96C78.7447 123.96 79.5981 123.832 80.3661 123.576C81.1341 123.235 81.9874 122.851 82.9261 122.424C84.2914 121.571 85.4861 120.419 86.5101 118.968C87.5341 117.517 88.3447 115.939 88.942 114.232C89.6247 112.525 90.1367 110.733 90.4781 108.856C90.9047 106.979 91.2034 105.187 91.3741 103.48V102.84Z" fill="black"/>
<path d="M23.984 93.368C23.984 93.5387 23.984 94.008 23.984 94.776C23.984 95.544 23.984 96.44 23.984 97.464C23.984 98.4027 23.984 99.2987 23.984 100.152C24.0693 101.005 24.112 101.56 24.112 101.816C24.88 100.28 25.7333 98.744 26.672 97.208C27.696 95.672 29.3173 93.496 31.536 90.68C31.7067 90.5094 32.0907 90.168 32.688 89.656C33.2853 89.144 34.0533 88.5894 34.992 87.992C36.016 87.3947 37.1253 86.8827 38.32 86.456C39.6 86.0294 40.9227 85.816 42.288 85.816C44.848 85.816 46.896 86.5414 48.432 87.992C50.0533 89.3574 51.2907 91.064 52.144 93.112C53.0827 95.16 53.7227 97.3787 54.064 99.768C54.4053 102.157 54.576 104.291 54.576 106.168C54.576 107.192 54.4907 108.643 54.32 110.52C54.1493 112.397 53.808 114.403 53.296 116.536C52.784 118.669 52.0587 120.803 51.12 122.936C50.2667 124.984 49.1147 126.691 47.664 128.056C45.7013 129.848 43.3973 131.213 40.752 132.152C38.1067 133.091 35.7173 133.56 33.584 133.56C31.4507 133.56 29.3173 133.389 27.184 133.048C25.136 132.707 23.1307 132.237 21.168 131.64C20.656 131.384 20.144 130.915 19.632 130.232C19.2053 129.464 18.736 128.611 18.224 127.672C17.7973 126.733 17.4133 125.752 17.072 124.728C16.7307 123.704 16.432 122.723 16.176 121.784C15.92 121.528 15.664 120.717 15.408 119.352C15.152 117.901 14.896 116.237 14.64 114.36C14.4693 112.397 14.2987 110.392 14.128 108.344C14.0427 106.211 14 104.333 14 102.712C14 95.544 14.128 88.4187 14.384 81.336C14.64 74.168 15.28 66.4027 16.304 58.04C16.304 56.4187 16.3893 54.84 16.56 53.304C16.7307 51.768 17.072 50.1467 17.584 48.44C18.0107 47.16 18.9493 46.392 20.4 46.136C21.936 45.7947 23.216 45.624 24.24 45.624C25.008 45.624 25.7333 45.7947 26.416 46.136C27.0987 46.4774 27.5253 47.0747 27.696 47.928C27.2693 53.3894 26.672 58.552 25.904 63.416C25.136 68.28 24.6667 73.4427 24.496 78.904L23.984 93.368ZM30.512 108.728C30.0853 110.008 29.6587 111.203 29.232 112.312C28.8907 113.336 28.5493 114.403 28.208 115.512C27.952 116.621 27.696 117.816 27.44 119.096C27.2693 120.291 27.1413 121.656 27.056 123.192C27.9947 124.216 28.8907 124.813 29.744 124.984C30.5973 125.155 31.7067 125.24 33.072 125.24C35.2053 124.984 36.912 124.173 38.192 122.808C39.5573 121.443 40.624 119.779 41.392 117.816C42.16 115.853 42.672 113.763 42.928 111.544C43.184 109.24 43.312 107.107 43.312 105.144C43.312 104.376 43.2693 103.48 43.184 102.456C43.184 101.432 43.056 100.451 42.8 99.512C42.6293 98.5734 42.3733 97.7627 42.032 97.08C41.6907 96.3974 41.264 96.056 40.752 96.056C40.24 96.056 39.472 96.4827 38.448 97.336C37.5093 98.1894 36.528 99.256 35.504 100.536C34.48 101.731 33.4987 103.011 32.56 104.376C31.7067 105.741 31.1093 106.936 30.768 107.96L30.512 108.728Z" fill="black"/>
<path d="M134.58 64.36C134.836 65.0427 135.092 65.768 135.348 66.536C135.604 67.2187 135.732 67.9013 135.732 68.584C135.732 69.2667 135.519 69.8213 135.092 70.248C134.751 70.6747 134.281 71.016 133.684 71.272C133.172 71.528 132.617 71.6986 132.02 71.784C131.423 71.9546 130.868 72.04 130.356 72.04C128.649 72.04 127.241 71.0587 126.132 69.096C125.023 67.2187 124.127 64.872 123.444 62.056C122.761 59.1547 122.164 56.1253 121.652 52.968C121.225 49.7253 120.799 46.824 120.372 44.264C120.116 46.056 119.263 48.3173 117.812 51.048C116.447 53.7787 114.697 56.424 112.564 58.984C110.431 61.4587 108.084 63.592 105.524 65.384C102.964 67.176 100.404 68.072 97.844 68.072C95.796 68.072 94.0894 67.6453 92.724 66.792C91.444 66.024 90.4627 65.0427 89.78 63.848C89.0974 62.6533 88.628 61.3307 88.372 59.88C88.116 58.344 87.988 56.936 87.988 55.656C87.988 52.84 88.6707 49.384 90.036 45.288C91.4867 41.1067 93.4067 37.0533 95.796 33.128C98.2707 29.2026 101.087 25.8746 104.244 23.144C107.487 20.328 110.9 18.92 114.484 18.92C115.252 18.92 116.105 19.048 117.044 19.304C118.068 19.56 119.092 19.9013 120.116 20.328C121.14 20.6693 122.121 21.1387 123.06 21.736C123.999 22.248 124.809 22.76 125.492 23.272C126.943 24.4667 127.924 26.088 128.436 28.136C128.948 30.184 129.332 32.3173 129.588 34.536C130.185 38.8026 130.655 42.6853 130.996 46.184C131.337 49.5973 131.977 53.224 132.916 57.064L133.684 61.8L134.58 64.36ZM98.484 57.704C98.484 57.7893 98.484 57.8746 98.484 57.96C98.5694 57.96 98.612 58.0026 98.612 58.088C99.7214 58.0026 101.001 57.2773 102.452 55.912C103.903 54.4613 105.353 52.7547 106.804 50.792C108.255 48.8293 109.577 46.7813 110.772 44.648C112.052 42.4293 112.991 40.4667 113.588 38.76C113.929 37.992 114.313 37.1386 114.74 36.2C115.252 35.2613 115.721 34.3227 116.148 33.384C116.66 32.36 117.044 31.4213 117.3 30.568C117.641 29.7147 117.812 28.9893 117.812 28.392C117.385 28.2213 117.001 28.0507 116.66 27.88C116.319 27.7093 115.935 27.624 115.508 27.624C113.631 27.624 111.967 28.3493 110.516 29.8C109.065 31.2507 107.785 32.872 106.676 34.664C105.652 36.456 104.799 38.2053 104.116 39.912C103.433 41.5333 102.964 42.5573 102.708 42.984C101.513 45.1173 100.489 47.4213 99.636 49.896C98.868 52.3706 98.484 54.76 98.484 57.064V57.704Z" fill="black"/>
<path d="M48.096 58.344C51.3387 52.968 54.7947 47.72 58.464 42.6C62.1333 37.48 65.2053 32.232 67.68 26.856C66.3147 26.856 64.9067 27.0693 63.456 27.496C62.0907 27.8373 60.6827 28.2213 59.232 28.648C57.7813 29.0747 56.2453 29.5013 54.624 29.928C53.088 30.2693 51.5093 30.44 49.888 30.44C48.2667 30.184 46.9867 29.544 46.048 28.52C45.1093 27.496 44.4267 26.2587 44 24.808C44 23.6987 44.2987 22.8027 44.896 22.12C45.5787 21.4373 46.3893 20.9253 47.328 20.584C48.2667 20.2427 49.2907 19.9867 50.4 19.816C51.5093 19.6453 52.5333 19.4747 53.472 19.304C54.496 18.8773 55.776 18.536 57.312 18.28C58.848 18.024 60.2987 17.8107 61.664 17.64C63.1147 17.4693 64.3093 17.384 65.248 17.384C66.1867 17.2987 66.6133 17.256 66.528 17.256C66.9547 17.1707 67.296 17.128 67.552 17.128C67.808 17.0427 68.1493 17 68.576 17C71.5627 17 73.952 17.5973 75.744 18.792C77.6213 19.9867 78.56 22.376 78.56 25.96C78.56 26.984 78.304 28.2213 77.792 29.672C77.3653 31.1227 76.8107 32.616 76.128 34.152C75.4453 35.6027 74.6773 37.0107 73.824 38.376C73.056 39.7413 72.3307 40.8933 71.648 41.832C69.9413 44.9893 67.9787 47.976 65.76 50.792C63.6267 53.608 61.7067 56.5093 60 59.496C60 60.3493 60.128 60.8613 60.384 61.032C60.7253 61.2027 61.152 61.288 61.664 61.288C63.6267 61.288 65.3333 61.1173 66.784 60.776C68.32 60.4347 69.7707 60.0933 71.136 59.752C72.5013 59.3253 73.9093 58.9413 75.36 58.6C76.8107 58.2587 78.5173 58.088 80.48 58.088C81.8453 58.088 82.9973 58.472 83.936 59.24C84.96 60.008 85.472 61.1173 85.472 62.568C85.472 63.7627 85.1733 64.7013 84.576 65.384C84.064 66.0667 83.3813 66.6213 82.528 67.048C81.76 67.4747 80.9067 67.7733 79.968 67.944C79.1147 68.2 78.304 68.4133 77.536 68.584C76.5973 68.84 75.1893 69.1813 73.312 69.608C71.4347 70.0347 69.5147 70.4187 67.552 70.76C65.5893 71.1867 63.7547 71.528 62.048 71.784C60.3413 72.1253 59.1893 72.296 58.592 72.296C57.3973 72.296 56.0747 72.2107 54.624 72.04C53.1733 71.8693 51.808 71.4853 50.528 70.888C49.248 70.376 48.1387 69.6507 47.2 68.712C46.3467 67.7733 45.92 66.536 45.92 65C45.92 63.976 45.92 63.208 45.92 62.696C46.0053 62.184 46.1333 61.7573 46.304 61.416C46.4747 60.9893 46.688 60.5627 46.944 60.136C47.2853 59.7093 47.6693 59.112 48.096 58.344Z" fill="black"/>
</svg>
